<svg xmlns="http://www.w3.org/2000/svg" width="98" height="18"><path data-name="Path 20" d="M41.159 17.556a4.36 4.36 0 01-1.619-1.267.7.7 0 01-.174-.435.676.676 0 01.328-.56.8.8 0 01.436-.138.768.768 0 01.638.326 2.748 2.748 0 001.06.831 3.493 3.493 0 001.449.287 2.69 2.69 0 001.388-.365 2.634 2.634 0 001-1.073 3.568 3.568 0 00.373-1.687v-.762a3.588 3.588 0 01-1.278 1.337 3.382 3.382 0 01-1.791.482 3.908 3.908 0 01-2.064-.552 3.78 3.78 0 01-1.417-1.531 4.771 4.771 0 01-.507-2.223 4.516 4.516 0 01.546-2.238 3.9 3.9 0 011.526-1.531 4.468 4.468 0 012.228-.552 4.4 4.4 0 012.2.552 4.072 4.072 0 01.563.384l-.01-.92h1.524v7.664a4.644 4.644 0 01-.545 2.238 4.051 4.051 0 01-1.535 1.592 4.321 4.321 0 01-2.238.584 4.948 4.948 0 01-2.085-.443zm.694-9.878a2.624 2.624 0 00-.989 1.041 3.146 3.146 0 00-.358 1.508 3.1 3.1 0 00.359 1.5 2.635 2.635 0 00.989 1.034 2.75 2.75 0 001.426.373 2.745 2.745 0 001.425-.373 2.581 2.581 0 00.982-1.034 3.146 3.146 0 00.349-1.5 3.2 3.2 0 00-.349-1.508 2.569 2.569 0 00-.982-1.041 2.746 2.746 0 00-1.425-.373 2.75 2.75 0 00-1.425.373zm-37.8 9.109a4.031 4.031 0 01-1.577-.317 4.039 4.039 0 01-1.288-.865 4.037 4.037 0 01-.867-1.285 4.013 4.013 0 01-.318-1.573V4.04a4.012 4.012 0 01.319-1.573 4.019 4.019 0 01.867-1.285A4.037 4.037 0 012.477.317a4.031 4.031 0 011.577-.318h8.724a4.033 4.033 0 011.577.318 4.028 4.028 0 011.287.865 4.022 4.022 0 01.868 1.285 4 4 0 01.318 1.573v8.7a4.013 4.013 0 01-.318 1.573 4.031 4.031 0 01-.868 1.285 4.029 4.029 0 01-1.287.865 4.035 4.035 0 01-1.577.317zM5.3 8.798a3.607 3.607 0 00.3 1.484 2.386 2.386 0 00.833 1.026 2.105 2.105 0 001.207.365h.031a1.258 1.258 0 00.763-.217.668.668 0 00.3-.56.812.812 0 00-.2-.56.65.65 0 00-.506-.218H7.64a.645.645 0 01-.562-.373 1.873 1.873 0 01-.218-.948V5.128H5.302zM9.506 6.14a1.013 1.013 0 001.012 1.01 1.013 1.013 0 001.013-1.01 1.013 1.013 0 00-1.012-1.01 1.013 1.013 0 00-1.011 1.009zm71.441 7.943a3.291 3.291 0 01-1.339-1.36 4.47 4.47 0 01-.483-2.153V5.953h1.589v4.617a2.508 2.508 0 00.677 1.9 2.5 2.5 0 001.8.645 2.668 2.668 0 001.192-.264 2.118 2.118 0 00.841-.715 1.776 1.776 0 00.3-1.01V5.95h1.589v7.725a.783.783 0 01-.218.567.764.764 0 01-.577.225.771.771 0 01-.568-.225.767.767 0 01-.226-.567v-.171a3.471 3.471 0 01-1.184.769 3.941 3.941 0 01-1.465.272 3.975 3.975 0 01-1.932-.467zm10.585-.117a4.094 4.094 0 01-1.549-1.554 4.375 4.375 0 01-.562-2.2 4.633 4.633 0 01.521-2.2 3.93 3.93 0 011.433-1.547 3.811 3.811 0 012.033-.56 3.847 3.847 0 011.683.373 3.821 3.821 0 011.324 1.042V2.329h1.589v11.349a.794.794 0 01-.794.793.794.794 0 01-.794-.793v-.073a4.324 4.324 0 01-.525.36 4.237 4.237 0 01-2.173.568 4.319 4.319 0 01-2.187-.568zm.779-6.28a2.743 2.743 0 00-1 1.041 3 3 0 00-.367 1.485 3.055 3.055 0 00.367 1.492 2.73 2.73 0 001 1.049 2.678 2.678 0 001.411.381 2.677 2.677 0 001.409-.381 2.677 2.677 0 00.99-1.049 3.108 3.108 0 00.358-1.492 3.066 3.066 0 00-.358-1.485 2.692 2.692 0 00-.99-1.041 2.676 2.676 0 00-1.41-.381 2.675 2.675 0 00-1.409.38zm-21.973 6.3a3.9 3.9 0 01-1.526-1.531 4.493 4.493 0 01-.545-2.223 4.531 4.531 0 01.545-2.238 3.9 3.9 0 011.527-1.531 4.467 4.467 0 012.228-.552 4.393 4.393 0 012.2.552 3.969 3.969 0 011.526 1.531 4.465 4.465 0 01.554 2.238 4.5 4.5 0 01-.545 2.223 3.92 3.92 0 01-1.518 1.531 4.423 4.423 0 01-2.22.552 4.463 4.463 0 01-2.227-.553zm.8-6.3a2.625 2.625 0 00-.989 1.042 3.141 3.141 0 00-.359 1.508 3.1 3.1 0 00.359 1.5 2.639 2.639 0 00.989 1.034 2.749 2.749 0 001.426.373 2.747 2.747 0 001.425-.373 2.572 2.572 0 00.98-1.034 3.142 3.142 0 00.352-1.5 3.2 3.2 0 00-.351-1.508 2.563 2.563 0 00-.981-1.042 2.749 2.749 0 00-1.425-.373 2.744 2.744 0 00-1.423.372zm-14.807 6.3a4 4 0 01-1.535-1.547 4.429 4.429 0 01-.553-2.2 4.589 4.589 0 01.538-2.231 3.864 3.864 0 011.5-1.539 4.32 4.32 0 012.181-.552 3.876 3.876 0 013.053 1.4.58.58 0 01.156.4.681.681 0 01-.342.575.611.611 0 01-.359.109.782.782 0 01-.606-.281 2.489 2.489 0 00-.849-.614 2.677 2.677 0 00-1.051-.194 2.543 2.543 0 00-1.947.8 2.985 2.985 0 00-.748 2.122 3.147 3.147 0 00.351 1.5 2.584 2.584 0 00.981 1.034 2.777 2.777 0 001.441.373 2.591 2.591 0 001.713-.544.98.98 0 01.577-.218.662.662 0 01.4.138.724.724 0 01.3.56.579.579 0 01-.187.42 3.965 3.965 0 01-2.805 1.042 4.386 4.386 0 01-2.211-.558zm-25.875.008a3.908 3.908 0 01-1.527-1.531 4.5 4.5 0 01-.544-2.223 4.525 4.525 0 01.545-2.238 3.9 3.9 0 011.526-1.531 4.47 4.47 0 012.228-.552 4.391 4.391 0 012.2.552 3.974 3.974 0 011.527 1.531 4.474 4.474 0 01.553 2.238 4.493 4.493 0 01-.545 2.223 3.918 3.918 0 01-1.519 1.531 4.423 4.423 0 01-2.221.552 4.466 4.466 0 01-2.225-.553zm.8-6.3a2.62 2.62 0 00-.99 1.042 3.141 3.141 0 00-.358 1.508 3.1 3.1 0 00.358 1.5 2.634 2.634 0 00.99 1.034 2.744 2.744 0 001.424.373 2.749 2.749 0 001.426-.373 2.588 2.588 0 00.981-1.034 3.153 3.153 0 00.351-1.5 3.2 3.2 0 00-.35-1.508 2.576 2.576 0 00-.981-1.042 2.751 2.751 0 00-1.426-.373 2.743 2.743 0 00-1.424.373zm34.793 6.793a2.1 2.1 0 01-1.207-.365 2.377 2.377 0 01-.833-1.026 3.583 3.583 0 01-.3-1.484V2.347h1.558v9.251a1.853 1.853 0 00.218.948.642.642 0 00.561.373h.39a.648.648 0 01.506.218.81.81 0 01.2.56.668.668 0 01-.3.559 1.256 1.256 0 01-.764.218zm-15.663-.225a.766.766 0 01-.227-.567V5.968h1.589v7.71a.781.781 0 01-.218.567.764.764 0 01-.576.225.77.77 0 01-.568-.225zm-23.75.225a2.1 2.1 0 01-1.208-.365 2.384 2.384 0 01-.832-1.026 3.576 3.576 0 01-.3-1.484V2.347h1.558v9.251a1.853 1.853 0 00.218.948.642.642 0 00.561.373h.389a.646.646 0 01.506.218.807.807 0 01.2.56.666.666 0 01-.3.559 1.253 1.253 0 01-.763.218zM50.229 4.298a.985.985 0 01-.3-.723.985.985 0 01.3-.723.99.99 0 01.724-.3.989.989 0 01.724.3.987.987 0 01.3.723.989.989 0 01-.3.723.989.989 0 01-.724.3.989.989 0 01-.724-.3z" fill="#828d9e"/></svg>