<svg xmlns="http://www.w3.org/2000/svg" width="14.001" height="18"><path data-name="Path 188" d="M4.899 16.025h4.2A2.089 2.089 0 016.999 18a2.09 2.09 0 01-2.1-1.975zm-4.8-1.574l1.256-2.083a1.094 1.094 0 00.155-.553V7.572a5.5 5.5 0 016.9-5.224 5.428 5.428 0 014.084 5.224v4.243a1.085 1.085 0 00.156.553l1.258 2.083a.651.651 0 01-.566.975s-10.629-.009-12.683 0H.638a.649.649 0 01-.539-.975zM7.005 1.569a6.268 6.268 0 00-1.688.234v-.146A1.7 1.7 0 018.197.481a1.69 1.69 0 01.494 1.323 6.263 6.263 0 00-1.692-.235z" fill="#828d9e"/></svg>