<svg xmlns="http://www.w3.org/2000/svg" width="24.001" height="24"><path data-name="Path 195" d="M.201 22.896c2.63-2.632 20.081-20.079 22.7-22.7a.643.643 0 01.909.909l-5.734 5.734a23.294 23.294 0 015.749 4.708.684.684 0 010 .906c-1.354 1.536-6.131 6.455-11.818 6.455a11.781 11.781 0 01-4.863-1.136l-6.033 6.032a.608.608 0 01-.438.2.65.65 0 01-.472-1.108zm9.69-7.874a3.669 3.669 0 002.105.666 3.682 3.682 0 003.683-3.684 3.669 3.669 0 00-.664-2.1zM.184 12.457a.682.682 0 010-.906C1.538 10.015 6.316 5.097 12 5.097a11.045 11.045 0 013.559.624l-2.713 2.711a3.6 3.6 0 00-.85-.112 3.682 3.682 0 00-3.683 3.684 3.548 3.548 0 00.111.851l-3.621 3.62a24 24 0 01-4.619-4.022z" fill="#828d9e"/></svg>