<svg xmlns="http://www.w3.org/2000/svg" width="21" height="20"><path data-name="Path 186" d="M0 17.229l.115 2.454a.214.214 0 00.2.2L2.744 20a.487.487 0 00.323-.126L4.2 18.723h2.217a.19.19 0 00.189-.191v-2.24l.267-.27H9.09a.19.19 0 00.189-.191v-2.24l1.27-1.283 1.07 1.08a.188.188 0 00.267 0l1.051-1.062a6.193 6.193 0 006.234-1.571 6.348 6.348 0 000-8.913 6.194 6.194 0 00-8.822 0 6.346 6.346 0 00-1.555 6.3L.125 16.903a.5.5 0 00-.125.326zM14.761 3.517a1.935 1.935 0 012.757 0 1.983 1.983 0 010 2.785 1.935 1.935 0 01-2.757 0 1.983 1.983 0 010-2.785z" fill="#e70406"/></svg>