<svg xmlns="http://www.w3.org/2000/svg" width="23" height="22"><path data-name="Path 184" d="M9.891 20.698a1.622 1.622 0 01.959-1.828 1.648 1.648 0 012 .57 9.02 9.02 0 007.137-5.816.8.8 0 01-.27-.595v-4.9a.8.8 0 01.27-.595 9.056 9.056 0 00-16.969 0 .814.814 0 01.271.595v4.9a.819.819 0 01-.821.815H.826a.82.82 0 01-.823-.815v-4.9a.819.819 0 01.823-.815h.525a10.7 10.7 0 0120.3 0h.525a.819.819 0 01.823.815v4.9a.819.819 0 01-.823.815h-.525a10.657 10.657 0 01-8.672 7.227 1.644 1.644 0 01-3.089-.372zM4.107 10.581a7.394 7.394 0 117.393 7.34 7.368 7.368 0 01-7.398-7.339zm1.643 0A5.751 5.751 0 1011.5 4.87a5.732 5.732 0 00-5.751 5.712z" fill="#404040"/></svg>