<svg xmlns="http://www.w3.org/2000/svg" width="170" height="57"><path d="M45.465 57c-2.5 0-6.184-1.662-9.623-4.322a117.977 117.977 0 01-11.551-10.154.41.41 0 01-.014-.561.427.427 0 01.572-.049 18.4 18.4 0 0011.3 4.215 16.831 16.831 0 004.957-.76 18.977 18.977 0 002.193-.8 18.377 18.377 0 006.273-4.947h.01c.262-.348.441-.543.793-.543h4.344c.5 0 .713.1.639.51a116.544 116.544 0 01-1.344 5.613c-1.947 7.32-4.215 10.912-7.383 11.648a3.939 3.939 0 01-1.078.152C45.527 57 45.494 57 45.465 57zm42-21.316h-3.617a.179.179 0 01-.133-.062.169.169 0 01-.041-.129l.842-4.535h-5.748l-4.471 4.691a.135.135 0 01-.082.035H69.5a.183.183 0 01-.146-.1.121.121 0 01.016-.16l5.209-5.023a3.431 3.431 0 01-1.68-1.264 4.2 4.2 0 01-.672-3.3c.877-4.7 3.764-5.338 6.48-5.338h11.477a.173.173 0 01.131.066v-.006a.161.161 0 01.047.131l-2.775 14.9a.12.12 0 01-.113.1zm-11.3-9.908a1.927 1.927 0 00.2 1.67 1.821 1.821 0 001.383.418h7.348l.8-4.273h-7.361c-1.457-.003-2.078.573-2.373 2.182zm52.633 9.908h-3.617a.19.19 0 01-.133-.062.168.168 0 01-.035-.129l2.184-11.746h-.236l-11.275 11.9a.128.128 0 01-.092.039h-6.207a.179.179 0 01-.133-.062.182.182 0 01-.041-.129l2.777-14.9a.119.119 0 01.123-.09h3.613a.157.157 0 01.129.061.145.145 0 01.041.131l-2.186 11.744h.234l11.41-11.9a.124.124 0 01.092-.037h6.08a.167.167 0 01.125.066v-.006a.163.163 0 01.041.131l-2.777 14.9a.111.111 0 01-.109.1zm28.307 0a.181.181 0 01-.129-.062.163.163 0 01-.043-.129l2.191-11.746h-6.111a.16.16 0 01-.129-.061.175.175 0 01-.043-.131l.547-2.961a.136.136 0 01.125-.1h16.322a.186.186 0 01.129.066l-.006-.006a.167.167 0 01.045.131l-.553 2.967a.1.1 0 01-.117.09h-6.277l-2.215 11.84a.119.119 0 01-.117.1zm-20.33 0c-2.2 0-3.5-.363-4.215-1.16-.736-.822-.887-2.148-.49-4.293l.795-4.225c.809-4.352 2.445-5.68 7.02-5.68h6.014c2.242 0 3.59.4 4.391 1.3.771.863.98 2.205.633 4.092a.119.119 0 01-.121.1h-3.619a.167.167 0 01-.127-.062.171.171 0 01-.047-.129 1.675 1.675 0 00-.215-1.488 2.806 2.806 0 00-2.088-.551h-4.646c-2.395 0-2.887.395-3.307 2.652l-.687 3.689c-.193 1.029-.131 1.68.182 2.029s.9.486 2.053.486h4.643c2.066 0 2.854-.32 3.191-2.1a.122.122 0 01.121-.1h3.633a.171.171 0 01.127.066.136.136 0 01.047.125c-.8 4.166-2.15 5.248-6.549 5.248zm-42.363 0c-2 0-3.236-.344-3.914-1.105-.629-.7-.777-1.727-.479-3.314a.121.121 0 01.117-.1h3.615a.19.19 0 01.133.063.17.17 0 01.043.131.928.928 0 00.223.793 1.505 1.505 0 001.127.434h6.059c1.563 0 2.316-.469 2.521-1.578.1-.557.07-.875-.131-1.1-.26-.293-.855-.434-1.816-.434h-6.643a.165.165 0 01-.133-.061.162.162 0 01-.041-.127l.48-2.6a.116.116 0 01.123-.1h7.063a1.791 1.791 0 001.328-.414 1.758 1.758 0 00.619-1.229 1.136 1.136 0 00-.164-1.01 1.462 1.462 0 00-1.121-.348h-6.078c-1.414 0-1.766.4-1.994 1.311a.13.13 0 01-.121.088h-3.611a.2.2 0 01-.133-.061.2.2 0 01-.049-.133c.563-2.975 2.434-4.307 6.072-4.307h6.145c2.295 0 3.709.387 4.459 1.225a3.526 3.526 0 01.527 3.178 3.763 3.763 0 01-2.387 3.123 2.47 2.47 0 011.523 3.037c-.607 3.244-2.418 4.627-6.059 4.627zm-43.367 0a.174.174 0 01-.129-.062.17.17 0 01-.043-.129l2.783-14.9a.11.11 0 01.117-.09h10.893c2.109 0 3.428.379 4.156 1.189a3.058 3.058 0 01.525 2.734c-.4 2.154-1.049 2.855-2.207 3.279 1.293.539 1.932 1.377 1.533 3.508-.592 3.137-2.377 4.475-5.988 4.475zm4.881-6.221l-.586 3.127h7.053c1.928 0 2.18-.424 2.408-1.643.1-.551.127-.92-.07-1.152s-.684-.336-1.518-.336zm.547-2.93h7.18a1.763 1.763 0 001.686-1.646.942.942 0 00-1.049-1.291h-7.268zm-20.008 9.145c-2.191 0-3.5-.357-4.213-1.162-.734-.82-.885-2.148-.484-4.291l.787-4.219c.811-4.352 2.449-5.68 7.018-5.68h6.014c2.232 0 3.584.4 4.395 1.291.773.869.977 2.211.625 4.1a.118.118 0 01-.111.1h-3.623a.19.19 0 01-.135-.062.17.17 0 01-.039-.129 1.687 1.687 0 00-.223-1.488 2.78 2.78 0 00-2.088-.551h-4.639c-2.391 0-2.889.395-3.311 2.648l-.686 3.693c-.193 1.029-.129 1.68.182 2.023s.9.488 2.057.488h4.645c2.064 0 2.854-.316 3.188-2.092a.119.119 0 01.115-.1h3.643a.18.18 0 01.129.064.128.128 0 01.039.127c-.793 4.17-2.146 5.246-6.549 5.246zm-21.8-2.588A116.53 116.53 0 014.38 21.684C1.159 17.633-.571 13.239.18 11.01c.738-3.082 4.391-5.316 11.832-7.215A151.529 151.529 0 0133.465.051a7.006 7.006 0 01.7-.049c.146 0 .615 0 .67.412.051.461-.508.588-1.146.723-6.125 1.342-17.008 4.838-21.061 13.227a18.573 18.573 0 00-.818 2.145c-1.752 5.5-.59 10.9 3.479 16.039a.408.408 0 01-.053.557.4.4 0 01-.281.107.414.414 0 01-.295-.124zm40-16.424h-6.871c-.355 0-.641-.334-.814-.582h-.006c-.287-.424-.59-.844-.922-1.258a21.393 21.393 0 00-1.523-1.658 19.176 19.176 0 00-1.693-1.51 18.822 18.822 0 00-11.969-3.953 27.918 27.918 0 00-5.115.494.419.419 0 01-.477-.266.416.416 0 01.188-.51c2.52-1.373 11.242-4.057 15.551-4.787a33.919 33.919 0 016.154-.656c3.076.006 5.25.676 6.646 2.049 2.113 2.1 2.6 6.066 1.482 12.121a.624.624 0 01-.621.512z" fill="#e60407"/></svg>