<svg xmlns="http://www.w3.org/2000/svg" width="24" height="14"><path data-name="Path 194" d="M11.999 14h-.044a11.067 11.067 0 01-3.578-.632l.016-.016a21.248 21.248 0 01-8.22-5.881A.684.684 0 01-.001 7a.677.677 0 01.173-.468A21.228 21.228 0 018.392.648L8.376.632A11.067 11.067 0 0111.954 0h.088a11.057 11.057 0 013.577.632l-.015.016a21.225 21.225 0 018.22 5.884.689.689 0 01.175.468.7.7 0 01-.175.471 21.245 21.245 0 01-8.22 5.882l.015.016a11.057 11.057 0 01-3.577.632zM8.44 6.136l.013.013a3.524 3.524 0 00-.112.852 3.524 3.524 0 00.112.852l-.013.013a3.7 3.7 0 003.559 2.873 3.7 3.7 0 003.559-2.873l-.013-.013a3.523 3.523 0 00.111-.852 3.523 3.523 0 00-.111-.852l.013-.013a3.7 3.7 0 00-3.559-2.873A3.7 3.7 0 008.44 6.135z" fill="#828d9e"/></svg>