<svg xmlns="http://www.w3.org/2000/svg" width="14" height="18" viewBox="0 0 14 18">
  <path id="Path_191" data-name="Path 191" d="M29,9.6h0v.1H26.98a2.561,2.561,0,0,1-.96-.18,2.52,2.52,0,0,1-1.6-2.32V7.18L24.36,5.8l-.02-.58L24.32,5h.08l.08.08h0L29,9.6Zm-2.02,1.1a3.339,3.339,0,0,1-1.1-.18,3.666,3.666,0,0,1-1.46-.9,3.452,3.452,0,0,1-1-2.42l-.02-.54-.04-1.02L23.32,5H17.4A2.407,2.407,0,0,0,15,7.4V20.6A2.407,2.407,0,0,0,17.4,23h9.2A2.407,2.407,0,0,0,29,20.6V10.7Z" transform="translate(-15 -5)" fill="#137cdf"/>
</svg>
