<svg xmlns="http://www.w3.org/2000/svg" width="21" height="20" viewBox="0 0 21 20">
  <path id="Path_186" data-name="Path 186" d="M5,24.806l.115,2.454a.214.214,0,0,0,.2.2l2.429.117a.487.487,0,0,0,.323-.126L9.2,26.3h2.217a.19.19,0,0,0,.189-.191v-2.24l.267-.27h2.217a.19.19,0,0,0,.189-.191v-2.24l1.27-1.283,1.07,1.08a.188.188,0,0,0,.267,0l1.051-1.062a6.193,6.193,0,0,0,6.234-1.571,6.348,6.348,0,0,0,0-8.913,6.194,6.194,0,0,0-8.822,0,6.346,6.346,0,0,0-1.555,6.3L5.125,24.48A.5.5,0,0,0,5,24.806ZM19.761,11.094a1.935,1.935,0,0,1,2.757,0,1.983,1.983,0,0,1,0,2.785,1.935,1.935,0,0,1-2.757,0A1.983,1.983,0,0,1,19.761,11.094Z" transform="translate(-5 -7.577)" fill="#e70406"/>
</svg>
