<svg xmlns="http://www.w3.org/2000/svg" width="24.001" height="24" viewBox="0 0 24.001 24">
  <path id="Path_195" data-name="Path 195" d="M8707.2-679.126c2.63-2.632,20.081-20.079,22.7-22.7a.643.643,0,0,1,.909.909l-5.734,5.734a23.294,23.294,0,0,1,5.749,4.708.684.684,0,0,1,0,.906c-1.354,1.536-6.131,6.455-11.818,6.455a11.781,11.781,0,0,1-4.863-1.136l-6.033,6.032a.608.608,0,0,1-.438.2A.65.65,0,0,1,8707.2-679.126ZM8716.89-687a3.669,3.669,0,0,0,2.105.666,3.682,3.682,0,0,0,3.683-3.684,3.669,3.669,0,0,0-.664-2.1Zm-9.707-2.565a.682.682,0,0,1,0-.906c1.354-1.536,6.132-6.454,11.816-6.454a11.045,11.045,0,0,1,3.559.624l-2.713,2.711a3.6,3.6,0,0,0-.85-.112,3.682,3.682,0,0,0-3.683,3.684,3.548,3.548,0,0,0,.111.851l-3.621,3.62A24,24,0,0,1,8707.183-689.569Z" transform="translate(-8706.999 702.022)" fill="#828d9e"/>
</svg>
