<svg xmlns="http://www.w3.org/2000/svg" width="14.001" height="18" viewBox="0 0 14.001 18">
  <path id="Path_188" data-name="Path 188" d="M10673.9-4567.475h4.2a2.089,2.089,0,0,1-2.1,1.975A2.09,2.09,0,0,1,10673.9-4567.475Zm-4.8-1.574,1.256-2.083a1.094,1.094,0,0,0,.155-.553v-4.243a5.5,5.5,0,0,1,6.9-5.224,5.428,5.428,0,0,1,4.084,5.224v4.243a1.085,1.085,0,0,0,.156.553l1.258,2.083a.651.651,0,0,1-.566.975s-10.629-.009-12.683,0h-.021A.649.649,0,0,1,10669.1-4569.049Zm6.906-12.882a6.268,6.268,0,0,0-1.688.234v-.146a1.7,1.7,0,0,1,2.88-1.176,1.69,1.69,0,0,1,.494,1.323A6.263,6.263,0,0,0,10676-4581.931Z" transform="translate(-10669.001 4583.5)" fill="#828d9e"/>
</svg>
