<svg xmlns="http://www.w3.org/2000/svg" width="23" height="22" viewBox="0 0 23 22">
  <path id="Path_184" data-name="Path 184" d="M11198.889,2283.726a1.622,1.622,0,0,1,.959-1.828,1.648,1.648,0,0,1,2,.57,9.02,9.02,0,0,0,7.137-5.816.8.8,0,0,1-.27-.595v-4.9a.8.8,0,0,1,.27-.595,9.056,9.056,0,0,0-16.969,0,.814.814,0,0,1,.271.595v4.9a.819.819,0,0,1-.821.815h-1.642a.82.82,0,0,1-.823-.815v-4.9a.819.819,0,0,1,.823-.815h.525a10.7,10.7,0,0,1,20.3,0h.525a.819.819,0,0,1,.823.815v4.9a.819.819,0,0,1-.823.815h-.525a10.657,10.657,0,0,1-8.672,7.227,1.644,1.644,0,0,1-3.089-.372Zm-5.784-10.117a7.394,7.394,0,1,1,7.393,7.34A7.368,7.368,0,0,1,11193.1,2273.61Zm1.643,0a5.751,5.751,0,1,0,5.75-5.711A5.732,5.732,0,0,0,11194.747,2273.61Z" transform="translate(-11188.998 -2263.028)" fill="#404040"/>
</svg>
