<svg xmlns="http://www.w3.org/2000/svg" width="24" height="14" viewBox="0 0 24 14">
  <path id="Path_194" data-name="Path 194" d="M10065-86h-.044a11.067,11.067,0,0,1-3.578-.632l.016-.016a21.248,21.248,0,0,1-8.22-5.881A.684.684,0,0,1,10053-93a.677.677,0,0,1,.173-.468,21.228,21.228,0,0,1,8.22-5.884l-.016-.016a11.067,11.067,0,0,1,3.578-.632h.088a11.057,11.057,0,0,1,3.577.632l-.015.016a21.225,21.225,0,0,1,8.22,5.884A.689.689,0,0,1,10077-93a.7.7,0,0,1-.175.471,21.245,21.245,0,0,1-8.22,5.882l.015.016a11.057,11.057,0,0,1-3.577.632Zm-3.559-7.864.013.013a3.524,3.524,0,0,0-.112.852,3.524,3.524,0,0,0,.112.852l-.013.013a3.7,3.7,0,0,0,3.559,2.873,3.7,3.7,0,0,0,3.559-2.873l-.013-.013a3.523,3.523,0,0,0,.111-.852,3.523,3.523,0,0,0-.111-.852l.013-.013a3.7,3.7,0,0,0-3.559-2.873A3.7,3.7,0,0,0,10061.441-93.865Z" transform="translate(-10053.001 100)" fill="#828d9e"/>
</svg>
